<svg xmlns="http://www.w3.org/2000/svg" aria-hidden="true" style="position:absolute;width:0;height:0;overflow:hidden">
  <defs>
    <symbol id="icon-strat" viewBox="0 0 75 32">
      <path fill="#f4f4fd" d="M1 0h73l1 1v30l-1 1H1l-1-1V1l1-1z" style="fill:var(--color1, #f4f4fd)"/>
      <path fill="#2e2f42" d="m46 19-5-4 1-3a1 1 0 1 0-1-1l-3 1-4-5h-1l-1 1 1 1a9 9 0 0 0 1 10v4h-3l-2 1v1h15v-1l-2-1h-3v-2a9 9 0 0 0 5-1l1 1 1-1v-1zm-4-9a1 1 0 1 1 0 1 1 1 0 0 1 0-1zm-1 2v2l-1-1 1-1zm0 0-1 1-1-1h2zm1 11 1 1v1H30v-1l1-1h11zm-4-1v1h-3v-1h3zm-3-1v-2l1-1 2 1v2h-3zm4 0v-2c0-1-1-2-3-2l-1 1c-3-2-3-6-2-9l11 11-5 1zm6-1L33 8l5 4 8 8h-1z" style="fill:var(--color2, #2e2f42)"/>
      <path fill="#4d5ae5" d="M37 18h-1a1 1 0 1 0 0 2 1 1 0 0 0 1-2zm0 2h-1v-1l1 1z" style="fill:var(--color3, #4d5ae5)"/>
    </symbol>
    <symbol id="icon-punct" viewBox="0 0 75 32">
      <path fill="#f4f4fd" d="M1 0h73l1 1v30l-1 1H1l-1-1V1l1-1z" style="fill:var(--color1, #f4f4fd)"/>
      <path fill="#2e2f42" d="M46 16a9 9 0 1 0-11 8h1l2-7a1 1 0 1 0-1-2l-3-3 3 3v1l-2 7a8 8 0 1 1 6 0v-1h-1l-2 2 3 1v-1c3-2 5-5 5-8zm-8-1v1-1zm1 9 1-1 1 1h-2z" style="fill:var(--color2, #2e2f42)"/>
      <path fill="#4d5ae5" d="M37 9h1-1zm-6 6v1h1v-1h-1zm14 1v-1h-1v1h1z" style="fill:var(--color3, #4d5ae5)"/>
    </symbol>
    <symbol id="icon-dil" viewBox="0 0 75 32">
      <path fill="#f4f4fd" d="M1 0h73l1 1v30l-1 1H1l-1-1V1l1-1z" style="fill:var(--color1, #f4f4fd)"/>
      <path fill="#4d5ae5" d="M37 15h1v3h-1v-3zm3 2v1-1zm-5 1zm-2-1v1-1z" style="fill:var(--color3, #4d5ae5)"/>
      <path fill="#2e2f42" d="M29 23h15l1-1v-1l-1-1v-8l2-1a1 1 0 1 0-1-1l-1 2v-1l-1-1H31l-1 1v9h-1v3zm17-13zm-16 1h13v2-2H31v8h12v-6 7H30v-9zm3 4a1 1 0 1 0 1 1l1 1 2-3 3 2 2-2v5H32v-7h10v1l-2 2-2-1h-1l-2 2h-1l-1-1zm0 1zm2 5h3-3zm-6 0h6l1 1h2l1-1h5v1H29v-1z" style="fill:var(--color2, #2e2f42)"/>
    </symbol>
    <symbol id="icon-tech" viewBox="0 0 75 32">
      <path fill="#f4f4fd" d="M1 0h73l1 1v30l-1 1H1l-1-1V1l1-1z" style="fill:var(--color1, #f4f4fd)"/>
      <path fill="#4d5ae5" d="M47 9h-1l-1-1h-1v1h-1v1l1 1-1 1h1l1-1 1 1v-1l1-1V9zm-2 1v1h-1V9h1v1h1-1zm-1 9h-1 1zm0 1h-1 1zm0-1v1-1zm-1 0h-1v1h1v-1zm-2 3v1-1zm0 1v1-1zm1 0h-1 1zm-1 0h-1 1zm-3-2h-1 1zm0 1h-1v1h1v-1zm0-1v1-1zm-1 0h-1v1h1v-1zm-5-11h-1v1h1v-1zm0 2h-1 1zm1-1h-1v1h1v-1zm-2 0v1-1z" style="fill:var(--color3, #4d5ae5)"/>
      <path fill="#2e2f42" d="M43 15h-2l-2 1a4 4 0 0 0-2-8 4 4 0 0 0-3 6h-2l-2 1-1 1a1 1 0 0 0 1 2l1-1 1-1h1l-3 4h-1v2h1c1 0 0 0 0 0l1-1 1-1 1 1-1 1h-1v2a1 1 0 0 0 1 0l2-2 1-1 3-3h2l2-1 1-1v-1zm-13 2h-1v-1h1v1zm2-1h-1l1-1v1zm8-4v2l-2-1-1-1 1-3 2 3zm-6 0a3 3 0 0 1 3-3v3l-1 1 1 1 1-1 2 1a3 3 0 0 1-6-2zm3 1h-1l1-1v1zm-7 8h-1l1-1 1 1h-1zm2 2h-1l1-1v1zm2-2-1 1h-1l1-1v-1h-1v-1c0-1 0 0 0 0v1h-2l2-2 2 3zm4-4h-1l-2 3-3-2 2-2h-2v-1h2a4 4 0 0 0 4 1l1 1v1l-1-1zm2 0 1-1v1h-1zm2-1h-1l1-1v1z" style="fill:var(--color2, #2e2f42)"/>
      <path fill="#2e2f42" d="m36 17-1-1-2 1v1l2 1 1-1v-1zm-1 1h-1l1-1 1 1h-1zm3-8 1 2h1c0-2-1-2-2-2zm2 2h-1v1h1v-1z" style="fill:var(--color2, #2e2f42)"/>
    </symbol>
  </defs>
</svg>
<svg xmlns="http://www.w3.org/2000/svg" aria-hidden="true" style="position:absolute;width:0;height:0;overflow:hidden">
  <defs>
    <symbol id="icon-instagram" viewBox="0 0 32 32">
      <path fill="#4d5ae5" d="M32 16A16 16 0 0 1 5 27 16 16 0 0 1 16 0c4 0 8 2 11 5s5 7 5 11z" style="fill:var(--color1, #4d5ae5)"/>
      <path fill="#f4f4fd" d="M22 13v-1l-1-1-1-1h-1a43 43 0 0 0-7 0l-1 1-1 1v1a44 44 0 0 0 0 7l1 1 1 1h1a47 47 0 0 0 7 0l2-2v-7zm-1 6v1l-1 1h-1a45 45 0 0 1-7 0l-1-1v-1a45 45 0 0 1 0-7l1-1h1a45 45 0 0 1 7 0h1v8z" style="fill:var(--color2, #f4f4fd)"/>
      <path fill="#f4f4fd" d="M16 13a3 3 0 1 0 0 6 3 3 0 0 0 0-6zm0 5a2 2 0 1 1 0-4 2 2 0 0 1 0 4zm4-5a1 1 0 1 1-1 0 1 1 0 0 1 1 0z" style="fill:var(--color2, #f4f4fd)"/>
    </symbol>
    <symbol id="icon-twitter" viewBox="0 0 32 32">
      <path fill="#4d5ae5" d="M32 16A16 16 0 0 1 5 27 16 16 0 0 1 16 0c4 0 8 2 11 5s5 7 5 11z" style="fill:var(--color1, #4d5ae5)"/>
      <path fill="#f4f4fd" d="M22 12h-1l1-1-2 1a3 3 0 0 0-4 2l-6-3v2l1 2-1-1c0 2 1 3 2 3a3 3 0 0 1-1 0l2 2a5 5 0 0 1-3 1l4 1a7 7 0 0 0 7-8l1-1z" style="fill:var(--color2, #f4f4fd)"/>
    </symbol>
    <symbol id="icon-facebook" viewBox="0 0 32 32">
      <path fill="#4d5ae5" d="M32 16A16 16 0 0 1 5 27 16 16 0 0 1 16 0c4 0 8 2 11 5s5 7 5 11z" style="fill:var(--color1, #4d5ae5)"/>
      <path fill="#f4f4fd" d="M18 12h1v-2h-1c-2 0-3 1-3 3v1h-2v3h2v5h2v-5h2v-3h-2v-1l1-1z" style="fill:var(--color2, #f4f4fd)"/>
    </symbol>
    <symbol id="icon-linkedin" viewBox="0 0 32 32">
      <path fill="#4d5ae5" d="M32 16A16 16 0 0 1 5 27 16 16 0 0 1 16 0c4 0 8 2 11 5s5 7 5 11z" style="fill:var(--color1, #4d5ae5)"/>
      <path fill="#f4f4fd" d="M22 22v-4c0-3 0-4-3-4l-2 1v-1h-3v8h3v-4l1-2c2 0 2 1 2 2v4h2zm-12-8h2v8h-2v-8zm1-4-1 1 1 2 2-2-2-1z" style="fill:var(--color2, #f4f4fd)"/>
    </symbol>
  </defs>
</svg>